# xmcd
#
# Track frame offsets:
#	150
#	5603
#	14770
#	17995
#	20755
#	23900
#	28310
#	36693
#	40310
#	50603
#	57300
#	66490
#	70975
#	82948
#	89033
#	92543
#	96495
#	100353
#	103433
#	110693
#	115378
#	119758
#	124330
#	130540
#	135410
#	140650
#	146975
#	152070
#	157155
#	161513
#	167743
#	172255
#	176235
#	185643
#	190168
#	200448
#	210595
#	216183
#	223743
#	232515
#	240683
#	247450
#
# Disc length: 3432 seconds
#
# Revision: 0
# Processed by: cddbd v1.5.2PL0 Copyright (c) Steve Scherf et al.
# Submitted via: EasyCDDAExtractor 16.0.6.1
#
DISCID=9c0d662a
DTITLE=Τρίο Μπελκάντο  - Τραγούδια του τόπου μας 1
DYEAR=1991
DGENRE=Ποικίλη
TTITLE0=Μέσα στο νερό της λίμνης [Λ. Μαρκέας-Θ. Σοφός]
TTITLE1=Σκαλί-σκαλί [Ν. Γούναρης-Χ. Βασιλειάδης]
TTITLE2=Ωραία Αιγιώτισσα [Δ. Περδικόπουλος]
TTITLE3=Φρόσω μου [Γ. Μητσάκης-Δ. Σέμσης]
TTITLE4=Η μάννα μου με δέρνει [Ν. Ρούτσος]
TTITLE5=Ιτιά [παραδοσιακό]
TTITLE6=Πουλιά μου διαβατάρικα [Γ. Παπασιδέρης-Δ. Σέμσης]
TTITLE7=Ποιος είδε την αγάπη μου [Π. Κοκοντίνης-Κ. Ανδριακοπούλου]
TTITLE8=Ένας αητός [παραδοσιακό]
TTITLE9=Πάμε τσάρκα [Β. Τσιτσάνης]
TTITLE10=Βαλεντίνα [Γ. Μητσάκης]
TTITLE11=Τράβα τράβα τράβα [Α. Χατζηχρήστος]
TTITLE12=Φέρτε μου να πιω [Β. Τσιτσάνης]
TTITLE13=Ξεκινάει μια ψαροπούλα [Δ. Γκόγκος]
TTITLE14=Καλυβιώτισσα [Σ. Περπινιάδης]
TTITLE15=Ανάθεμά σε θάλασσα [Π. Τούντας]
TTITLE16=Ο καπετάνιος [Ν. Γούναρης]
TTITLE17=Καπετάν Ανδρέα Ζέπο [Ι. Παπαϊωάννου]
TTITLE18=Ένα καράβι από τη Χίο [παραδοσιακό]
TTITLE19=Αχάριστη [Β. Τσιτσάνης]
TTITLE20=Μπρος στον Άγιο Σπυρίδωνα [Ν. Γούναρης-Χ. Βασιλειάδης]
TTITLE21=Θεσσαλονίκη μου [Μ. Χιώτης-Χ. Κολοκοτρώνης]
TTITLE22=Σβήσε το φως να κοιμηθούμε [Ι. Παπαϊωάννου]
TTITLE23=Τι όμορφη που είσαι όταν κλαις [Σ. Χρυσίνης-Χ. Κολοκοτρώνης]
TTITLE24=Σουρωμένος θά 'ρθω πάλι [Ι. Παπαϊωάννου]
TTITLE25=Όπου Γιώργος και μάλαμα [Γ. Μητσάκης]
TTITLE26=Φέρε μας καπελά κρασί [Κ. Καπλάνης]
TTITLE27=Θέλω στα μπουζούκια [Γ. Μητσάκης]
TTITLE28=Συννεφιασμένη Κυριακή [Β. Τσιτσάνης-Α. Γουβέρης]
TTITLE29=Βαγγελίτσα [Ι. Παπαϊωάννου]
TTITLE30=Βλαχοπούλα [Δ. Βλαχαγγέλης]
TTITLE31=Καναρίνι [Δ. Φράττης]
TTITLE32=Καραγκούνα [Γ. Παπασιδέρης-Π. Κοκοντίνης]
TTITLE33=Κομπολογάκι [Γ. Μητσάκης]
TTITLE34=Ο Περικλής [Σ. Καμενίδης-Π. Αλαφούζου]
TTITLE35=Χωρίσαμε ένα δειλινό [Β. Τσιτσάνης]
TTITLE36=Ο τροχός [Γ. Μητσάκης]
TTITLE37=Βρε καλώς τον Γιώργο [Γ. Μητσάκης]
TTITLE38=Φραγκοσυριανή [Μ. Βαμβακάρης]
TTITLE39=Αν μ' αξιώσει ο Θεός [Μ. Βαμβακάρης]
TTITLE40=Μια Κυριακή [Σ. Χρυσίνης-Π. Τούντας]
TTITLE41=Ο Αντώνης ο βαρκάρης [Σ. Περιστέρης]
EXTD=
EXTT0=
EXTT1=
EXTT2=
EXTT3=
EXTT4=
EXTT5=
EXTT6=
EXTT7=
EXTT8=
EXTT9=
EXTT10=
EXTT11=
EXTT12=
EXTT13=
EXTT14=
EXTT15=
EXTT16=
EXTT17=
EXTT18=
EXTT19=
EXTT20=
EXTT21=
EXTT22=
EXTT23=
EXTT24=
EXTT25=
EXTT26=
EXTT27=
EXTT28=
EXTT29=
EXTT30=
EXTT31=
EXTT32=
EXTT33=
EXTT34=
EXTT35=
EXTT36=
EXTT37=
EXTT38=
EXTT39=
EXTT40=
EXTT41=
PLAYORDER=
